<svg version="1.1" viewBox="0.000000 0.000000 96.000000 96.000000" xmlns="http://www.w3.org/2000/svg" xmlns:xlink="http://www.w3.org/1999/xlink" id="Icons_SingleGear" overflow="hidden"><g><path d=" M 48.000000 60.000000 C 41.400002 60.000000 36.000000 54.599998 36.000000 48.000000 C 36.000000 41.400002 41.400002 36.000000 48.000000 36.000000 C 54.599998 36.000000 60.000000 41.400002 60.000000 48.000000 C 60.000000 54.599998 54.599998 60.000000 48.000000 60.000000 Z M 75.000000 40.500000 C 74.400002 38.299999 73.500000 36.200001 72.400002 34.299999 L 74.900002 26.799999 L 69.199997 21.100000 L 61.700001 23.600000 C 59.700001 22.500000 57.599998 21.600000 55.400002 21.000000 L 52.000000 14.000000 L 44.000000 14.000000 L 40.500000 21.000000 C 38.299999 21.600000 36.200001 22.500000 34.299999 23.600000 L 26.799999 21.100000 L 21.100000 26.799999 L 23.600000 34.299999 C 22.500000 36.299999 21.600000 38.400002 21.000000 40.599998 L 14.000000 44.000000 L 14.000000 52.000000 L 21.000000 55.500000 C 21.600000 57.700001 22.500000 59.799999 23.600000 61.700001 L 21.100000 69.199997 L 26.799999 74.900002 L 34.299999 72.400002 C 36.299999 73.500000 38.400002 74.400002 40.599998 75.000000 L 44.099998 82.000000 L 52.099998 82.000000 L 55.599998 75.000000 C 57.799999 74.400002 59.900002 73.500000 61.799999 72.400002 L 69.300003 74.900002 L 75.000000 69.199997 L 72.500000 61.700001 C 73.599998 59.700001 74.500000 57.599998 75.099998 55.400002 L 82.099998 51.900002 L 82.099998 43.900002 L 75.000000 40.500000 Z" stroke="#F44336" stroke-width="1.000000" stroke-linecap="butt" stroke-opacity="1.000000" fill="#FFFFFF" fill-opacity="1.000000"/></g></svg>